<svg xmlns="http://www.w3.org/2000/svg" version="1.1" xmlns:xlink="http://www.w3.org/1999/xlink" xmlns:svgjs="http://svgjs.dev/svgjs" width="1000" height="750" viewBox="0 0 1000 750"><rect width="1000" height="750" fill="#35355d"></rect><g transform="matrix(0.584,0,0,0.584,208,83.00037915702833)"><svg viewBox="0 0 280 280" data-background-color="#35355d" preserveAspectRatio="xMidYMid meet" height="1000" width="1000" xmlns="http://www.w3.org/2000/svg" xmlns:xlink="http://www.w3.org/1999/xlink"><g id="tight-bounds" transform="matrix(1,0,0,1,0,0.0000023496774019804434)"><svg viewBox="0 0 280 280" height="280" width="280"><g><svg viewBox="0 0 280 280" height="280" width="280"><g><svg viewBox="0 0 280 280" height="280" width="280"><g id="textblocktransform"><svg viewBox="0 0 280 280" height="280" width="280" id="textblock"><g><svg viewBox="0 0 280 280" height="280" width="280"><g transform="matrix(1,0,0,1,90.50252531694167,90.50252531694167)"><svg viewBox="0 0 98.99494936611666 98.99494936611666" height="98.99494936611666" width="98.99494936611666"><g><circle r="49" cx="49.49747468305833" cy="49.49747468305833" fill="#ffffff" data-fill-palette-color="accent"></circle></g></svg></g><g><path d="M34.906 99.145c-1.067 2.688-2.596 4.882-4.587 6.582-1.995 1.691-4.239 2.749-6.733 3.175-2.5 0.424-5.011 0.136-7.533-0.865v0c-2.515-0.998-4.537-2.509-6.066-4.533-1.523-2.021-2.43-4.33-2.723-6.928-0.283-2.602 0.108-5.247 1.176-7.936v0c1.067-2.688 2.595-4.879 4.583-6.572 1.995-1.691 4.239-2.749 6.733-3.176 2.5-0.424 5.008-0.137 7.524 0.862v0c2.521 1.001 4.547 2.513 6.075 4.536 1.523 2.021 2.43 4.33 2.723 6.929 0.286 2.596-0.105 5.238-1.172 7.926zM28.945 96.779c0.51-1.285 0.669-2.568 0.475-3.846-0.191-1.285-0.72-2.45-1.585-3.494-0.86-1.042-2.006-1.848-3.44-2.418v0c-1.428-0.567-2.812-0.765-4.152-0.596-1.347 0.167-2.53 0.652-3.551 1.456-1.018 0.798-1.782 1.84-2.292 3.125v0c-0.51 1.285-0.67 2.571-0.478 3.855 0.194 1.279 0.723 2.44 1.589 3.485 0.86 1.042 2.003 1.847 3.431 2.414v0c1.434 0.569 2.821 0.769 4.161 0.6 1.347-0.167 2.529-0.649 3.547-1.447 1.02-0.804 1.785-1.849 2.295-3.134z" fill="#ffffff" data-fill-palette-color="primary"></path><path d="M76.797 47.475c-1.837 1.236-3.774 2.211-5.81 2.924-2.04 0.708-3.855 1.048-5.445 1.02v0l-1.081-6.161c1.473-0.014 3.018-0.268 4.633-0.762 1.619-0.488 3.076-1.169 4.372-2.041v0c2.466-1.659 3.283-3.107 2.451-4.343v0c-0.434-0.645-1.108-0.89-2.019-0.732-0.918 0.161-2.271 0.591-4.061 1.29v0c-1.955 0.787-3.649 1.354-5.082 1.701-1.43 0.353-2.869 0.34-4.319-0.039-1.449-0.379-2.705-1.357-3.766-2.935v0c-0.932-1.385-1.392-2.89-1.381-4.517 0.006-1.623 0.542-3.262 1.608-4.917 1.068-1.664 2.694-3.232 4.878-4.702v0c1.495-1.006 3.078-1.827 4.75-2.463 1.677-0.64 3.285-1.008 4.822-1.106v0l1.236 6.106c-2.949 0.286-5.442 1.114-7.478 2.483v0c-1.274 0.858-2.076 1.673-2.404 2.448-0.332 0.769-0.294 1.456 0.114 2.063v0c0.408 0.607 1.062 0.828 1.962 0.664 0.894-0.161 2.215-0.597 3.964-1.31v0c1.981-0.796 3.682-1.364 5.104-1.704 1.418-0.346 2.854-0.338 4.307 0.023 1.449 0.355 2.707 1.324 3.772 2.907v0c0.917 1.363 1.369 2.85 1.356 4.462-0.019 1.616-0.563 3.26-1.633 4.933-1.071 1.683-2.688 3.252-4.85 4.708z" fill="#ffffff" data-fill-palette-color="primary"></path><path d="M141.346 28.474c-2.865 0.041-5.447-0.527-7.745-1.704-2.305-1.184-4.124-2.846-5.458-4.988-1.334-2.149-2.021-4.592-2.061-7.332v0c-0.039-2.733 0.577-5.192 1.849-7.378 1.272-2.18 3.043-3.894 5.312-5.143 2.263-1.243 4.827-1.885 7.693-1.927v0c2.506-0.036 4.77 0.373 6.79 1.229 2.021 0.862 3.708 2.118 5.062 3.767v0l-4.872 4.529c-1.799-2.115-3.966-3.155-6.499-3.118v0c-1.483 0.021-2.801 0.366-3.955 1.035-1.147 0.668-2.032 1.602-2.653 2.801-0.621 1.193-0.921 2.557-0.898 4.092v0c0.022 1.542 0.361 2.901 1.016 4.075 0.655 1.181 1.566 2.089 2.733 2.724 1.173 0.635 2.501 0.941 3.983 0.92v0c2.533-0.037 4.668-1.138 6.406-3.304v0l5.001 4.386c-1.306 1.688-2.956 2.992-4.951 3.912-1.995 0.913-4.246 1.388-6.753 1.424z" fill="#ffffff" data-fill-palette-color="primary"></path><path d="M219.664 24.346c2.163 1.405 3.79 3.076 4.879 5.012 1.089 1.936 1.552 4.025 1.389 6.266-0.163 2.241-0.998 4.521-2.506 6.841v0l-8.052 12.395-6.498-4.221 3.303-5.086-8.949-5.813-3.304 5.085-6.398-4.156 8.052-12.396c1.507-2.32 3.251-4.009 5.232-5.069 1.975-1.064 4.072-1.49 6.289-1.278 2.212 0.208 4.4 1.014 6.563 2.42zM206.49 34.722l8.949 5.813 1.853-2.852c1.094-1.684 1.514-3.215 1.259-4.593-0.254-1.378-1.059-2.508-2.414-3.388v0c-1.377-0.895-2.747-1.178-4.11-0.85-1.363 0.328-2.591 1.334-3.685 3.017v0z" fill="#ffffff" data-fill-palette-color="primary"></path><path d="M248.666 105.729l4.86-7.342-1.595-3.917-6.734 2.742-2.919-7.168 25.356-10.326 4.717 11.584c0.935 2.297 1.368 4.443 1.298 6.439-0.074 2.004-0.629 3.753-1.666 5.244-1.043 1.494-2.519 2.63-4.427 3.408v0c-1.835 0.747-3.607 0.97-5.317 0.668-1.716-0.299-3.283-1.09-4.703-2.371v0l-5.744 8.715zM264.606 99.151c1.189-0.484 1.953-1.233 2.294-2.248 0.349-1.011 0.223-2.255-0.379-3.733v0l-1.621-3.981-7.427 3.024 1.622 3.981c0.602 1.478 1.375 2.459 2.318 2.944 0.946 0.49 2.011 0.495 3.193 0.013z" fill="#ffffff" data-fill-palette-color="primary"></path><path d="M14.183 195.259c-1.067-2.688-1.459-5.334-1.176-7.936 0.292-2.598 1.2-4.908 2.723-6.929 1.529-2.023 3.554-3.535 6.076-4.536v0c2.515-0.998 5.023-1.286 7.523-0.862 2.494 0.426 4.739 1.485 6.733 3.176 1.991 1.699 3.52 3.893 4.587 6.582v0c1.067 2.688 1.458 5.33 1.172 7.926-0.292 2.598-1.2 4.908-2.723 6.929-1.529 2.023-3.551 3.534-6.066 4.532v0c-2.521 1.001-5.032 1.289-7.533 0.866-2.494-0.426-4.739-1.485-6.733-3.176-1.988-1.693-3.516-3.884-4.583-6.572zM20.143 192.893c0.51 1.285 1.274 2.327 2.292 3.125 1.02 0.804 2.204 1.289 3.551 1.456 1.34 0.169 2.728-0.031 4.161-0.601v0c1.428-0.567 2.571-1.371 3.431-2.413 0.866-1.045 1.394-2.21 1.585-3.494 0.194-1.279 0.035-2.561-0.475-3.846v0c-0.51-1.285-1.275-2.33-2.295-3.135-1.018-0.798-2.2-1.28-3.547-1.446-1.34-0.169-2.724 0.03-4.152 0.596v0c-1.434 0.569-2.581 1.375-3.44 2.417-0.866 1.045-1.396 2.206-1.589 3.485-0.191 1.285-0.032 2.57 0.478 3.856z" fill="#ffffff" data-fill-palette-color="primary"></path><path d="M64.348 257.201c-1.837-1.236-3.469-2.663-4.897-4.282-1.424-1.624-2.422-3.177-2.995-4.66v0l5.301-3.321c0.568 1.36 1.384 2.695 2.45 4.005 1.062 1.316 2.241 2.41 3.537 3.282v0c2.466 1.659 4.114 1.871 4.946 0.636v0c0.434-0.645 0.407-1.361-0.081-2.147-0.494-0.79-1.403-1.882-2.725-3.276v0c-1.465-1.515-2.628-2.871-3.489-4.068-0.865-1.191-1.395-2.53-1.59-4.015-0.195-1.485 0.239-3.017 1.301-4.595v0c0.932-1.385 2.153-2.378 3.664-2.979 1.506-0.606 3.226-0.726 5.161-0.362 1.944 0.363 4.008 1.279 6.193 2.749v0c1.495 1.006 2.852 2.164 4.07 3.473 1.224 1.313 2.171 2.663 2.84 4.051v0l-5.191 3.443c-1.375-2.625-3.081-4.622-5.116-5.992v0c-1.274-0.858-2.332-1.293-3.173-1.306-0.837-0.018-1.46 0.276-1.868 0.883v0c-0.408 0.607-0.367 1.296 0.124 2.067 0.485 0.767 1.387 1.827 2.705 3.179v0c1.483 1.535 2.65 2.898 3.501 4.087 0.854 1.184 1.388 2.517 1.6 3.999 0.217 1.476-0.208 3.006-1.273 4.589v0c-0.917 1.363-2.125 2.341-3.623 2.936-1.504 0.591-3.232 0.706-5.185 0.345-1.962-0.359-4.025-1.266-6.187-2.721z" fill="#ffffff" data-fill-palette-color="primary"></path><path d="M141.025 279.998c-2.865-0.041-5.43-0.683-7.693-1.927-2.27-1.25-4.04-2.964-5.312-5.143-1.272-2.186-1.888-4.649-1.849-7.388v0c0.039-2.733 0.726-5.173 2.061-7.322 1.334-2.142 3.154-3.805 5.458-4.988 2.298-1.177 4.88-1.745 7.745-1.704v0c2.506 0.036 4.757 0.511 6.753 1.424 1.995 0.92 3.645 2.224 4.951 3.912v0l-5.001 4.386c-1.738-2.166-3.873-3.268-6.406-3.304v0c-1.483-0.021-2.81 0.285-3.983 0.92-1.166 0.635-2.077 1.543-2.733 2.724-0.655 1.174-0.994 2.529-1.016 4.065v0c-0.022 1.542 0.277 2.91 0.898 4.102 0.621 1.199 1.505 2.133 2.653 2.801 1.154 0.668 2.472 1.013 3.955 1.035v0c2.533 0.037 4.699-1.003 6.499-3.118v0l4.872 4.529c-1.354 1.65-3.041 2.905-5.062 3.767-2.021 0.855-4.284 1.265-6.79 1.229z" fill="#ffffff" data-fill-palette-color="primary"></path><path d="M200.786 232.772c2.163-1.405 4.351-2.212 6.563-2.42 2.212-0.208 4.308 0.218 6.29 1.278 1.981 1.06 3.725 2.75 5.232 5.07v0l8.052 12.395-6.499 4.222-3.304-5.085-8.949 5.813 3.303 5.085-6.398 4.157-8.052-12.396c-1.507-2.32-2.342-4.6-2.505-6.84-0.169-2.237 0.294-4.326 1.389-6.266 1.089-1.936 2.715-3.607 4.878-5.013zM204.911 249.027l8.95-5.814-1.853-2.852c-1.094-1.684-2.322-2.69-3.685-3.018-1.363-0.328-2.722-0.052-4.076 0.829v0c-1.377 0.895-2.193 2.031-2.448 3.409-0.254 1.378 0.165 2.909 1.259 4.594v0z" fill="#ffffff" data-fill-palette-color="primary"></path><path d="M268.299 188.445l-8.607 1.857-1.595 3.917 6.734 2.742-2.919 7.168-25.356-10.326 4.717-11.583c0.935-2.297 2.125-4.135 3.57-5.514 1.453-1.383 3.072-2.245 4.856-2.588 1.79-0.341 3.64-0.122 5.548 0.655v0c1.835 0.747 3.259 1.826 4.271 3.236 1.019 1.413 1.588 3.073 1.708 4.982v0l10.199-2.222zM252.298 182.015c-1.189-0.484-2.259-0.482-3.212 0.005-0.956 0.479-1.735 1.458-2.337 2.936v0l-1.621 3.982 7.427 3.024 1.621-3.981c0.602-1.478 0.734-2.72 0.397-3.726-0.334-1.012-1.093-1.759-2.275-2.24z" fill="#ffffff" data-fill-palette-color="primary"></path><path d="M3.661 143.089c0-5.892 4.776-10.668 10.668-10.668 5.892 0 10.668 4.776 10.668 10.668 0 5.892-4.776 10.668-10.668 10.668-5.892 0-10.668-4.776-10.668-10.668z" fill="#ffffff" data-fill-palette-color="primary"></path><path d="M255.003 143.089c0-5.892 4.776-10.668 10.668-10.668 5.892 0 10.668 4.776 10.668 10.668 0 5.892-4.776 10.668-10.668 10.668-5.892 0-10.668-4.776-10.668-10.668z" fill="#ffffff" data-fill-palette-color="primary"></path></g></svg></g></svg></g></svg></g><g></g></svg></g><defs></defs></svg><rect width="280" height="280" fill="none" stroke="none" visibility="hidden"></rect></g></svg></g></svg>
